<svg xmlns="http://www.w3.org/2000/svg" viewBox="0 0 32 32" fill="none">
  <!-- Background circle -->
  <circle cx="16" cy="16" r="15" fill="#030303" stroke="#ef4444" stroke-width="1"/>
  
  <!-- Flame icon -->
  <path 
    d="M16 4c0 0-6 6-6 12c0 3.5 2.5 7 6 8c3.5-1 6-4.5 6-8c0-6-6-12-6-12z" 
    fill="url(#flameGradient)"
  />
  
  <!-- Inner flame -->
  <path 
    d="M16 10c0 0-3 3-3 6c0 1.8 1.2 3.5 3 4c1.8-0.5 3-2.2 3-4c0-3-3-6-3-6z" 
    fill="#fbbf24"
  />
  
  <!-- Bright center -->
  <ellipse cx="16" cy="19" rx="1.5" ry="2" fill="#fef3c7"/>
  
  <!-- Gradient definitions -->
  <defs>
    <linearGradient id="flameGradient" x1="16" y1="4" x2="16" y2="24" gradientUnits="userSpaceOnUse">
      <stop offset="0%" stop-color="#ef4444"/>
      <stop offset="50%" stop-color="#f97316"/>
      <stop offset="100%" stop-color="#eab308"/>
    </linearGradient>
  </defs>
</svg>
